<svg xmlns="http://www.w3.org/2000/svg" width="1400" height="1864" viewBox="0 0 1400 1864">
<defs><marker id="arrow" markerWidth="9" markerHeight="9" refX="8" refY="3" orient="auto"><path d="M0,0 L0,6 L9,3 z" fill="#454545"/></marker></defs>
<rect width="100%" height="100%" fill="#fff"/>
<text x="700.0" y="58" text-anchor="middle" font-family="Arial" font-size="38" font-weight="700" fill="#000">Argus Unified Complete Flow</text>
<text x="700.0" y="91" text-anchor="middle" font-family="Arial" font-size="18" fill="#333">End-to-end product architecture and runtime across all integrated modules</text>
<line x1="235" y1="112" x2="1165" y2="112" stroke="#999" stroke-width="2"/>
<rect x="24" y="116" width="1352" height="432" rx="18" fill="#f7f7f7" stroke="#888" stroke-width="2"/>
<rect x="46" y="115" width="244" height="27" fill="#fff"/>
<text x="58" y="134" font-family="Arial" font-size="15" font-weight="700" fill="#333">SINGLE ARGUS IMAGE, IDENTITY, AND USER EXPERIENCE</text>
<rect x="24" y="560" width="1352" height="432" rx="18" fill="#f7f7f7" stroke="#888" stroke-width="2"/>
<rect x="46" y="559" width="244" height="27" fill="#fff"/>
<text x="58" y="578" font-family="Arial" font-size="15" font-weight="700" fill="#333">INTEGRATED MODULE EXECUTION</text>
<rect x="24" y="1004" width="1352" height="432" rx="18" fill="#f7f7f7" stroke="#888" stroke-width="2"/>
<rect x="46" y="1003" width="244" height="27" fill="#fff"/>
<text x="58" y="1022" font-family="Arial" font-size="15" font-weight="700" fill="#333">SHARED DATA AND CORRELATION PLANE</text>
<rect x="24" y="1448" width="1352" height="284" rx="18" fill="#f7f7f7" stroke="#888" stroke-width="2"/>
<rect x="46" y="1447" width="244" height="27" fill="#fff"/>
<text x="58" y="1466" font-family="Arial" font-size="15" font-weight="700" fill="#333">OPERATIONAL INTELLIGENCE OUTPUTS</text>
<path d="M557.0,220.0 C557.0,254.0 557.0,254.0 557.0,288.0" fill="none" stroke="#555" stroke-width="2" marker-end="url(#arrow)"/>
<path d="M843.0,220.0 C843.0,254.0 843.0,254.0 843.0,288.0" fill="none" stroke="#555" stroke-width="2" marker-end="url(#arrow)"/>
<path d="M557.0,368.0 C557.0,402.0 414.0,402.0 414.0,436.0" fill="none" stroke="#555" stroke-width="2" marker-end="url(#arrow)"/>
<path d="M843.0,368.0 C843.0,402.0 986.0,402.0 986.0,436.0" fill="none" stroke="#555" stroke-width="2" marker-end="url(#arrow)"/>
<path d="M414.0,516.0 C414.0,550.0 271.0,550.0 271.0,584.0" fill="none" stroke="#555" stroke-width="2" marker-end="url(#arrow)"/>
<path d="M700.0,516.0 C700.0,550.0 843.0,550.0 843.0,584.0" fill="none" stroke="#555" stroke-width="2" marker-end="url(#arrow)"/>
<path d="M986.0,516.0 C986.0,550.0 1129.0,550.0 1129.0,584.0" fill="none" stroke="#555" stroke-width="2" marker-end="url(#arrow)"/>
<path d="M271.0,664.0 C271.0,698.0 700.0,698.0 700.0,732.0" fill="none" stroke="#555" stroke-width="2" marker-end="url(#arrow)"/>
<path d="M557.0,664.0 C557.0,698.0 700.0,698.0 700.0,732.0" fill="none" stroke="#555" stroke-width="2" marker-end="url(#arrow)"/>
<path d="M843.0,664.0 C843.0,698.0 700.0,698.0 700.0,732.0" fill="none" stroke="#555" stroke-width="2" marker-end="url(#arrow)"/>
<path d="M1129.0,664.0 C1129.0,698.0 700.0,698.0 700.0,732.0" fill="none" stroke="#555" stroke-width="2" marker-end="url(#arrow)"/>
<path d="M700.0,852.0 C700.0,886.0 414.0,846.0 414.0,880.0" fill="none" stroke="#555" stroke-width="2" marker-end="url(#arrow)"/>
<path d="M700.0,852.0 C700.0,886.0 700.0,846.0 700.0,880.0" fill="none" stroke="#555" stroke-width="2" marker-end="url(#arrow)"/>
<path d="M700.0,852.0 C700.0,886.0 986.0,846.0 986.0,880.0" fill="none" stroke="#555" stroke-width="2" marker-end="url(#arrow)"/>
<path d="M414.0,960.0 C414.0,994.0 271.0,994.0 271.0,1028.0" fill="none" stroke="#555" stroke-width="2" marker-end="url(#arrow)"/>
<path d="M700.0,960.0 C700.0,994.0 843.0,994.0 843.0,1028.0" fill="none" stroke="#555" stroke-width="2" marker-end="url(#arrow)"/>
<path d="M986.0,960.0 C986.0,994.0 1129.0,994.0 1129.0,1028.0" fill="none" stroke="#555" stroke-width="2" marker-end="url(#arrow)"/>
<path d="M271.0,1108.0 C271.0,1142.0 414.0,1142.0 414.0,1176.0" fill="none" stroke="#555" stroke-width="2" marker-end="url(#arrow)"/>
<path d="M557.0,1108.0 C557.0,1142.0 700.0,1142.0 700.0,1176.0" fill="none" stroke="#555" stroke-width="2" marker-end="url(#arrow)"/>
<path d="M843.0,1108.0 C843.0,1142.0 700.0,1142.0 700.0,1176.0" fill="none" stroke="#555" stroke-width="2" marker-end="url(#arrow)"/>
<path d="M1129.0,1108.0 C1129.0,1142.0 986.0,1142.0 986.0,1176.0" fill="none" stroke="#555" stroke-width="2" marker-end="url(#arrow)"/>
<path d="M414.0,1256.0 C414.0,1290.0 700.0,1290.0 700.0,1324.0" fill="none" stroke="#555" stroke-width="2" marker-end="url(#arrow)"/>
<path d="M700.0,1256.0 C700.0,1290.0 700.0,1290.0 700.0,1324.0" fill="none" stroke="#555" stroke-width="2" marker-end="url(#arrow)"/>
<path d="M986.0,1256.0 C986.0,1290.0 700.0,1290.0 700.0,1324.0" fill="none" stroke="#555" stroke-width="2" marker-end="url(#arrow)"/>
<path d="M700.0,1444.0 C700.0,1478.0 414.0,1438.0 414.0,1472.0" fill="none" stroke="#555" stroke-width="2" marker-end="url(#arrow)"/>
<path d="M700.0,1444.0 C700.0,1478.0 700.0,1438.0 700.0,1472.0" fill="none" stroke="#555" stroke-width="2" marker-end="url(#arrow)"/>
<path d="M700.0,1444.0 C700.0,1478.0 986.0,1438.0 986.0,1472.0" fill="none" stroke="#555" stroke-width="2" marker-end="url(#arrow)"/>
<path d="M414.0,1552.0 C414.0,1586.0 557.0,1586.0 557.0,1620.0" fill="none" stroke="#555" stroke-width="2" marker-end="url(#arrow)"/>
<path d="M700.0,1552.0 C700.0,1586.0 557.0,1586.0 557.0,1620.0" fill="none" stroke="#555" stroke-width="2" marker-end="url(#arrow)"/>
<path d="M986.0,1552.0 C986.0,1586.0 843.0,1586.0 843.0,1620.0" fill="none" stroke="#555" stroke-width="2" marker-end="url(#arrow)"/>
<path d="M973.0,180.0 L1366,180.0 L1366,792.0 L784.0,792.0" fill="none" stroke="#555" stroke-width="2" stroke-dasharray="11 7" marker-end="url(#arrow)"/>
<rect x="1235.0" y="766.0" width="140.0" height="22.0" rx="4" fill="#fff" stroke="#b5b5b5" stroke-width="1"/>
<text x="1305.0" y="782.0" text-anchor="middle" font-family="Arial" font-size="13" fill="#222">Operational guardrails</text>
<path d="M616.0,792.0 L34,792.0 L34,180.0 L427.0,180.0" fill="none" stroke="#555" stroke-width="2" stroke-dasharray="11 7" marker-end="url(#arrow)"/>
<rect x="21.0" y="154.0" width="148.0" height="22.0" rx="4" fill="#fff" stroke="#b5b5b5" stroke-width="1"/>
<text x="95.0" y="170.0" text-anchor="middle" font-family="Arial" font-size="13" fill="#222">Blocked: correct scope</text>
<path d="M700.0,960.0 C700.0,994.0 557.0,994.0 557.0,1028.0" fill="none" stroke="#555" stroke-width="2" marker-end="url(#arrow)"/>
<rect x="515.3" y="994.6" width="140.0" height="22.0" rx="4" fill="#fff" stroke="#b5b5b5" stroke-width="1"/>
<text x="585.3" y="1010.6" text-anchor="middle" font-family="Arial" font-size="13" fill="#222">Queue and retry state</text>
<path d="M401.0,1068.0 L1366,1068.0 L1366,476.0 L1116.0,476.0" fill="none" stroke="#555" stroke-width="2" stroke-dasharray="11 7" marker-end="url(#arrow)"/>
<rect x="1221.5" y="450.0" width="167.0" height="22.0" rx="4" fill="#fff" stroke="#b5b5b5" stroke-width="1"/>
<text x="1305.0" y="466.0" text-anchor="middle" font-family="Arial" font-size="13" fill="#222">Shared application models</text>
<path d="M427.0,1660.0 L34,1660.0 L34,476.0 L284.0,476.0" fill="none" stroke="#555" stroke-width="2" stroke-dasharray="11 7" marker-end="url(#arrow)"/>
<rect x="42.5" y="450.0" width="105.0" height="22.0" rx="4" fill="#fff" stroke="#b5b5b5" stroke-width="1"/>
<text x="95.0" y="466.0" text-anchor="middle" font-family="Arial" font-size="13" fill="#222">Analyst actions</text>
<path d="M973.0,1660.0 L1366,1660.0 L1366,180.0 L973.0,180.0" fill="none" stroke="#555" stroke-width="2" stroke-dasharray="11 7" marker-end="url(#arrow)"/>
<rect x="1238.0" y="154.0" width="134.0" height="22.0" rx="4" fill="#fff" stroke="#b5b5b5" stroke-width="1"/>
<text x="1305.0" y="170.0" text-anchor="middle" font-family="Arial" font-size="13" fill="#222">Audit and monitoring</text>
<path d="M570.0,1512.0 L34,1512.0 L34,1216.0 L570.0,1216.0" fill="none" stroke="#555" stroke-width="2" stroke-dasharray="11 7" marker-end="url(#arrow)"/>
<rect x="32.0" y="1190.0" width="126.0" height="22.0" rx="4" fill="#fff" stroke="#b5b5b5" stroke-width="1"/>
<text x="95.0" y="1206.0" text-anchor="middle" font-family="Arial" font-size="13" fill="#222">Detection feedback</text>
<rect x="427.0" y="140" width="260.0" height="80" rx="40.0" fill="#111" stroke="#000" stroke-width="2"/>
<text x="557.0" y="186.0" text-anchor="middle" font-family="Arial" font-size="16" font-weight="700" fill="#fff">Analyst / Administrator</text>
<rect x="713.0" y="140" width="260.0" height="80" rx="8" fill="#e8e8e8" stroke="#222" stroke-width="2"/>
<text x="843.0" y="176.0" text-anchor="middle" font-family="Arial" font-size="17" font-weight="400" fill="#000">Operations / Policy</text>
<text x="843.0" y="196.0" text-anchor="middle" font-family="Arial" font-size="17" font-weight="400" fill="#000">Secrets · TLS · Backups</text>
<rect x="427.0" y="288" width="260.0" height="80" rx="7" fill="#383838" stroke="#111" stroke-width="2"/>
<text x="557.0" y="324.0" text-anchor="middle" font-family="Arial" font-size="17" font-weight="400" fill="#fff">Local Bind or</text>
<text x="557.0" y="344.0" text-anchor="middle" font-family="Arial" font-size="17" font-weight="400" fill="#fff">External TLS Ingress</text>
<rect x="713.0" y="288" width="260.0" height="80" rx="7" fill="#383838" stroke="#111" stroke-width="2"/>
<text x="843.0" y="324.0" text-anchor="middle" font-family="Arial" font-size="17" font-weight="400" fill="#fff">JWT / RBAC</text>
<text x="843.0" y="344.0" text-anchor="middle" font-family="Arial" font-size="17" font-weight="400" fill="#fff">Tenant Context</text>
<rect x="284.0" y="436" width="260.0" height="80" rx="7" fill="#383838" stroke="#111" stroke-width="2"/>
<text x="414.0" y="472.0" text-anchor="middle" font-family="Arial" font-size="17" font-weight="400" fill="#fff">Built-in Analyst</text>
<text x="414.0" y="492.0" text-anchor="middle" font-family="Arial" font-size="17" font-weight="400" fill="#fff">Dashboard</text>
<rect x="570.0" y="436" width="260.0" height="80" rx="7" fill="#383838" stroke="#111" stroke-width="2"/>
<text x="700.0" y="472.0" text-anchor="middle" font-family="Arial" font-size="17" font-weight="400" fill="#fff">Built-in Modules SPA</text>
<text x="700.0" y="492.0" text-anchor="middle" font-family="Arial" font-size="17" font-weight="400" fill="#fff">/ modules</text>
<rect x="856.0" y="436" width="260.0" height="80" rx="7" fill="#383838" stroke="#111" stroke-width="2"/>
<text x="986.0" y="472.0" text-anchor="middle" font-family="Arial" font-size="17" font-weight="400" fill="#fff">FastAPI OpenAPI</text>
<text x="986.0" y="492.0" text-anchor="middle" font-family="Arial" font-size="17" font-weight="400" fill="#fff">170 Operations</text>
<rect x="141.0" y="584" width="260.0" height="80" rx="7" fill="#383838" stroke="#111" stroke-width="2"/>
<text x="271.0" y="620.0" text-anchor="middle" font-family="Arial" font-size="17" font-weight="400" fill="#fff">OSINT Investigation</text>
<text x="271.0" y="640.0" text-anchor="middle" font-family="Arial" font-size="17" font-weight="400" fill="#fff">Mounted /api/osint</text>
<rect x="427.0" y="584" width="260.0" height="80" rx="7" fill="#383838" stroke="#111" stroke-width="2"/>
<text x="557.0" y="620.0" text-anchor="middle" font-family="Arial" font-size="17" font-weight="400" fill="#fff">Breach Search / Graph</text>
<text x="557.0" y="640.0" text-anchor="middle" font-family="Arial" font-size="17" font-weight="400" fill="#fff">Mounted /api/breach</text>
<rect x="713.0" y="584" width="260.0" height="80" rx="7" fill="#383838" stroke="#111" stroke-width="2"/>
<text x="843.0" y="620.0" text-anchor="middle" font-family="Arial" font-size="17" font-weight="400" fill="#fff">Telegram Intelligence</text>
<text x="843.0" y="640.0" text-anchor="middle" font-family="Arial" font-size="17" font-weight="400" fill="#fff">/api/telegram</text>
<rect x="999.0" y="584" width="260.0" height="80" rx="7" fill="#383838" stroke="#111" stroke-width="2"/>
<text x="1129.0" y="620.0" text-anchor="middle" font-family="Arial" font-size="17" font-weight="400" fill="#fff">Core CTI / Customer</text>
<text x="1129.0" y="640.0" text-anchor="middle" font-family="Arial" font-size="17" font-weight="400" fill="#fff">Findings / Exposure</text>
<polygon points="700.0,732 784.0,792.0 700.0,852.0 616.0,792.0" fill="#4a4a4a" stroke="#000" stroke-width="2"/>
<text x="700.0" y="780.0" text-anchor="middle" font-family="Arial" font-size="16" font-weight="700" fill="#fff">Authorized</text>
<text x="700.0" y="798.0" text-anchor="middle" font-family="Arial" font-size="16" font-weight="700" fill="#fff">Input</text>
<text x="700.0" y="816.0" text-anchor="middle" font-family="Arial" font-size="16" font-weight="700" fill="#fff">and Scope?</text>
<rect x="284.0" y="880" width="260.0" height="80" rx="7" fill="#383838" stroke="#111" stroke-width="2"/>
<text x="414.0" y="916.0" text-anchor="middle" font-family="Arial" font-size="17" font-weight="400" fill="#fff">Collectors / Recon</text>
<text x="414.0" y="936.0" text-anchor="middle" font-family="Arial" font-size="17" font-weight="400" fill="#fff">Manual / API Ingest</text>
<rect x="570.0" y="880" width="260.0" height="80" rx="8" fill="#e8e8e8" stroke="#222" stroke-width="2"/>
<text x="700.0" y="916.0" text-anchor="middle" font-family="Arial" font-size="17" font-weight="400" fill="#000">Celery Workers</text>
<text x="700.0" y="936.0" text-anchor="middle" font-family="Arial" font-size="17" font-weight="400" fill="#000">and Scheduler</text>
<rect x="856.0" y="880" width="260.0" height="80" rx="7" fill="#383838" stroke="#111" stroke-width="2"/>
<text x="986.0" y="916.0" text-anchor="middle" font-family="Arial" font-size="17" font-weight="400" fill="#fff">OSINT / Breach /</text>
<text x="986.0" y="936.0" text-anchor="middle" font-family="Arial" font-size="17" font-weight="400" fill="#fff">Telegram Inputs</text>
<rect x="141.0" y="1028" width="260.0" height="80" rx="18" fill="#fff" stroke="#111" stroke-width="3"/>
<line x1="151.0" y1="1043" x2="391.0" y2="1043" stroke="#777" stroke-width="2"/>
<text x="271.0" y="1064.0" text-anchor="middle" font-family="Arial" font-size="17" font-weight="400" fill="#000">PostgreSQL</text>
<text x="271.0" y="1084.0" text-anchor="middle" font-family="Arial" font-size="17" font-weight="400" fill="#000">System of Record</text>
<rect x="427.0" y="1028" width="260.0" height="80" rx="18" fill="#fff" stroke="#111" stroke-width="3"/>
<line x1="437.0" y1="1043" x2="677.0" y2="1043" stroke="#777" stroke-width="2"/>
<text x="557.0" y="1064.0" text-anchor="middle" font-family="Arial" font-size="17" font-weight="400" fill="#000">Redis</text>
<text x="557.0" y="1084.0" text-anchor="middle" font-family="Arial" font-size="17" font-weight="400" fill="#000">Queue + Cache</text>
<rect x="713.0" y="1028" width="260.0" height="80" rx="18" fill="#fff" stroke="#111" stroke-width="3"/>
<line x1="723.0" y1="1043" x2="963.0" y2="1043" stroke="#777" stroke-width="2"/>
<text x="843.0" y="1064.0" text-anchor="middle" font-family="Arial" font-size="17" font-weight="400" fill="#000">ClickHouse</text>
<text x="843.0" y="1084.0" text-anchor="middle" font-family="Arial" font-size="17" font-weight="400" fill="#000">Breach Corpus</text>
<rect x="999.0" y="1028" width="260.0" height="80" rx="18" fill="#fff" stroke="#111" stroke-width="3"/>
<line x1="1009.0" y1="1043" x2="1249.0" y2="1043" stroke="#777" stroke-width="2"/>
<text x="1129.0" y="1064.0" text-anchor="middle" font-family="Arial" font-size="17" font-weight="400" fill="#000">Elasticsearch</text>
<text x="1129.0" y="1084.0" text-anchor="middle" font-family="Arial" font-size="17" font-weight="400" fill="#000">Correlation</text>
<rect x="284.0" y="1176" width="260.0" height="80" rx="7" fill="#383838" stroke="#111" stroke-width="2"/>
<text x="414.0" y="1212.0" text-anchor="middle" font-family="Arial" font-size="17" font-weight="400" fill="#fff">Normalize / Deduplicate</text>
<text x="414.0" y="1232.0" text-anchor="middle" font-family="Arial" font-size="17" font-weight="400" fill="#fff">Preserve Provenance</text>
<rect x="570.0" y="1176" width="260.0" height="80" rx="7" fill="#383838" stroke="#111" stroke-width="2"/>
<text x="700.0" y="1212.0" text-anchor="middle" font-family="Arial" font-size="17" font-weight="400" fill="#fff">IOC / PII / Threat</text>
<text x="700.0" y="1232.0" text-anchor="middle" font-family="Arial" font-size="17" font-weight="400" fill="#fff">Detection</text>
<rect x="856.0" y="1176" width="260.0" height="80" rx="7" fill="#383838" stroke="#111" stroke-width="2"/>
<text x="986.0" y="1212.0" text-anchor="middle" font-family="Arial" font-size="17" font-weight="400" fill="#fff">Customer Asset</text>
<text x="986.0" y="1232.0" text-anchor="middle" font-family="Arial" font-size="17" font-weight="400" fill="#fff">Correlation</text>
<polygon points="700.0,1324 784.0,1384.0 700.0,1444.0 616.0,1384.0" fill="#4a4a4a" stroke="#000" stroke-width="2"/>
<text x="700.0" y="1363.0" text-anchor="middle" font-family="Arial" font-size="16" font-weight="700" fill="#fff">Direct</text>
<text x="700.0" y="1381.0" text-anchor="middle" font-family="Arial" font-size="16" font-weight="700" fill="#fff">Finding or</text>
<text x="700.0" y="1399.0" text-anchor="middle" font-family="Arial" font-size="16" font-weight="700" fill="#fff">Threat</text>
<text x="700.0" y="1417.0" text-anchor="middle" font-family="Arial" font-size="16" font-weight="700" fill="#fff">Pressure?</text>
<rect x="284.0" y="1472" width="260.0" height="80" rx="7" fill="#383838" stroke="#111" stroke-width="2"/>
<text x="414.0" y="1508.0" text-anchor="middle" font-family="Arial" font-size="17" font-weight="400" fill="#fff">Enrichment / Severity</text>
<text x="414.0" y="1528.0" text-anchor="middle" font-family="Arial" font-size="17" font-weight="400" fill="#fff">Attribution / Campaign</text>
<rect x="570.0" y="1472" width="260.0" height="80" rx="7" fill="#383838" stroke="#111" stroke-width="2"/>
<text x="700.0" y="1508.0" text-anchor="middle" font-family="Arial" font-size="17" font-weight="400" fill="#fff">Finding / SLA /</text>
<text x="700.0" y="1528.0" text-anchor="middle" font-family="Arial" font-size="17" font-weight="400" fill="#fff">Remediation</text>
<rect x="856.0" y="1472" width="260.0" height="80" rx="7" fill="#383838" stroke="#111" stroke-width="2"/>
<text x="986.0" y="1508.0" text-anchor="middle" font-family="Arial" font-size="17" font-weight="400" fill="#fff">Exposure Score /</text>
<text x="986.0" y="1528.0" text-anchor="middle" font-family="Arial" font-size="17" font-weight="400" fill="#fff">History / Narrative</text>
<rect x="427.0" y="1620" width="260.0" height="80" rx="40.0" fill="#111" stroke="#000" stroke-width="2"/>
<text x="557.0" y="1656.0" text-anchor="middle" font-family="Arial" font-size="16" font-weight="700" fill="#fff">Unified Analyst Workspace</text>
<text x="557.0" y="1676.0" text-anchor="middle" font-family="Arial" font-size="16" font-weight="700" fill="#fff">Search · Review · Operate</text>
<rect x="713.0" y="1620" width="260.0" height="80" rx="40.0" fill="#111" stroke="#000" stroke-width="2"/>
<text x="843.0" y="1656.0" text-anchor="middle" font-family="Arial" font-size="16" font-weight="700" fill="#fff">STIX · SIEM · Alerts</text>
<text x="843.0" y="1676.0" text-anchor="middle" font-family="Arial" font-size="16" font-weight="700" fill="#fff">Reports · Metrics</text>
<text x="700.0" y="1835" text-anchor="middle" font-family="Arial" font-size="13" fill="#333">Solid arrow: primary processing flow    |    Dashed labeled arrow: policy, exception, or feedback path    |    Diamond: decision</text>
</svg>